# xmcd CD database file
#
# Track frame offsets:
#	150
#	17508
#	35762
#	55883
#	78550
#	91627
#	105469
#	120892
#	137914
#	155930
#	184786
#	197908
#
# Disc length: 2893 seconds
#
# Revision: 0
# Processed by: cddbd v1.5.1PL2 Copyright (c) Steve Scherf et al.
# Submitted via: CDex 1.51
#
DISCID=990b4b0c
DTITLE=Christian Bleiming - Solo and Live
DYEAR=2001
DGENRE=Blues
TTITLE0=Pinetop's Boogie Woogie
TTITLE1=New Honky Tonk Train
TTITLE2=Make Me A Pallet On The Floor
TTITLE3=Boogie Woogie Be With Me
TTITLE4=Callin' Mr. Freddie
TTITLE5=Farmhouse Boogie
TTITLE6=The Rockin' Blues
TTITLE7=Cow Street Boogie
TTITLE8='Fo' Day Blues
TTITLE9=Sixth Avenue Express
TTITLE10=Movin' The Shuffle
TTITLE11=Just A Closer Walk With Thee
EXTD=YEAR: 2001
EXTT0=
EXTT1=
EXTT2=
EXTT3=
EXTT4=
EXTT5=
EXTT6=
EXTT7=
EXTT8=
EXTT9=
EXTT10=
EXTT11=
PLAYORDER=
